<?xml version="1.0" encoding="utf-8"?>
<!-- Generator: Adobe Illustrator 21.1.0, SVG Export Plug-In . SVG Version: 6.00 Build 0)  -->
<svg version="1.1" id="Layer_1" xmlns="http://www.w3.org/2000/svg" xmlns:xlink="http://www.w3.org/1999/xlink" x="0px" y="0px"
	 viewBox="0 0 109 90.2" style="enable-background:new 0 0 109 90.2;" xml:space="preserve">
<style type="text/css">
	.st0{fill:none;stroke:#000000;stroke-width:2;stroke-miterlimit:10;}
	.st1{fill:none;}
	.st2{fill:none;stroke:#000000;stroke-miterlimit:10;}
	.st3{fill:none;stroke:#000000;stroke-width:4;stroke-miterlimit:10;}
	.st4{display:none;}
	.st5{display:inline;}
	.st6{fill:#FFFFFF;stroke:#000000;stroke-width:3;stroke-miterlimit:10;}
	.st7{fill:#E5AEAE;stroke:#000000;stroke-width:3;stroke-miterlimit:10;}
	.st8{fill:none;stroke:#000000;stroke-width:3;stroke-miterlimit:10;}
	.st9{opacity:0.2;}
	.st10{fill:#FF0000;}
	.st11{opacity:0.5;fill:#FF0000;}
	.st12{fill:none;stroke:#000000;stroke-width:3;stroke-linecap:round;stroke-miterlimit:10;}
	.st13{fill:none;stroke:#000000;stroke-linecap:round;stroke-miterlimit:10;}
	.st14{opacity:0.2;fill:none;stroke:#FF0000;stroke-width:0.75;stroke-linecap:round;stroke-miterlimit:10;}
</style>
<g id="Layer_2">
</g>
<g>
	<g>
		<g>
			<path class="st6" d="M44.6,19.1c-7.8,6.1-13.3,15.1-14.7,25.7c-2.7,21.3,12.3,40.8,33.6,43.6c21.3,2.7,40.8-12.3,43.6-33.6
				c1.4-10.6-1.7-20.8-7.7-28.6"/>
			<g>
				<path class="st7" d="M64.9,47.2C52.4,33.2,44.1,24,45.4,14.1c1-8,8.4-13.5,16.8-12.4c4.7,0.6,9,3.3,11.6,7c3.4-3,8.2-4.5,13-3.9
					C95.2,5.9,101,13,99.9,21.1C98.7,31,88.4,37.8,72.7,48.2l-4.4,2.9L64.9,47.2z"/>
			</g>
			<path d="M72.5,47.4l-4,3.1v0l-3.1-4c-1,0.8-1.7,2-1.9,3.4c-0.4,2.8,1.6,5.3,4.4,5.7c2.8,0.4,5.3-1.6,5.7-4.4
				C73.7,49.7,73.3,48.4,72.5,47.4z"/>
		</g>
		<line class="st8" x1="67.7" y1="53.3" x2="63.3" y2="87.5"/>
		<line class="st8" x1="29.8" y1="46" x2="107" y2="55.9"/>
		<line class="st8" x1="68.5" y1="51.1" x2="92.2" y2="81.7"/>
		<line class="st8" x1="68.4" y1="50.9" x2="37.6" y2="74.7"/>
	</g>
	<g class="st9">
		<path class="st11" d="M68.7,49.2l-3.2-3.6C54,32.6,45.8,23.8,47,14.7C47.9,7.3,54.8,2,62.5,3"/>
	</g>
	<g>
		<line class="st12" x1="37.7" y1="84.7" x2="12.1" y2="84.7"/>
		<line class="st12" x1="27.7" y1="74.7" x2="23.8" y2="74.7"/>
		<line class="st12" x1="17.7" y1="74.7" x2="1.5" y2="74.7"/>
		<line class="st12" x1="21.7" y1="62.7" x2="8.5" y2="62.7"/>
	</g>
	<ellipse transform="matrix(0.9448 -0.3277 0.3277 0.9448 -2.5326 21.4908)" cx="62.5" cy="18.3" rx="1" ry="1"/>
	<ellipse transform="matrix(0.9448 -0.3277 0.3277 0.9448 -2.0951 28.1226)" cx="82.4" cy="20.3" rx="1" ry="1"/>
	<path class="st13" d="M69.5,30.2c0,0,1.6,1.8,3.7,0.4"/>
	<path class="st14" d="M61.5,20.5c0,0,0.7,0.8,1.5,0.2"/>
	<path class="st14" d="M81.5,22.5c0,0,0.7,0.8,1.5,0.2"/>
</g>
</svg>
